<svg width="32" height="32" viewBox="0 0 32 32" fill="none" xmlns="http://www.w3.org/2000/svg">
  <rect width="32" height="32" rx="7" fill="#0049db"/>
  <!-- CPU-chip motief: het 'core' van CoreBuild -->
  <rect x="9" y="9" width="14" height="14" rx="2.5" fill="none" stroke="#ffffff" stroke-width="2"/>
  <rect x="13.25" y="13.25" width="5.5" height="5.5" rx="1.25" fill="#ffffff"/>
  <!-- pinnen -->
  <g fill="#ffffff">
    <rect x="12" y="5.5" width="1.8" height="3" rx="0.9"/>
    <rect x="15.1" y="5.5" width="1.8" height="3" rx="0.9"/>
    <rect x="18.2" y="5.5" width="1.8" height="3" rx="0.9"/>
    <rect x="12" y="23.5" width="1.8" height="3" rx="0.9"/>
    <rect x="15.1" y="23.5" width="1.8" height="3" rx="0.9"/>
    <rect x="18.2" y="23.5" width="1.8" height="3" rx="0.9"/>
    <rect x="5.5" y="12" width="3" height="1.8" rx="0.9"/>
    <rect x="5.5" y="15.1" width="3" height="1.8" rx="0.9"/>
    <rect x="5.5" y="18.2" width="3" height="1.8" rx="0.9"/>
    <rect x="23.5" y="12" width="3" height="1.8" rx="0.9"/>
    <rect x="23.5" y="15.1" width="3" height="1.8" rx="0.9"/>
    <rect x="23.5" y="18.2" width="3" height="1.8" rx="0.9"/>
  </g>
</svg>
